<?xml version="1.0" encoding="UTF-8"?>
<svg xmlns="http://www.w3.org/2000/svg" xmlns:xlink="http://www.w3.org/1999/xlink" width="50pt" height="35pt" viewBox="0 0 75 50" version="1.1">
<g id="surface1">
<rect x="0" y="0" width="75" height="50" style="fill:rgb(100%,100%,100%);fill-opacity:1;stroke:none;"/>
<path style=" stroke:none;fill-rule:nonzero;fill:rgb(0%,0%,0%);fill-opacity:1;" d="M 55.003906 24.535156 L 38.890625 29.53125 L 38.921875 47.4375 L 69.875 26.011719 L 57.132812 23.878906 Z M 53.136719 35.144531 L 52.265625 36.578125 L 45.144531 35.703125 L 45.878906 34.453125 C 46.574219 34.109375 47.234375 33.738281 47.859375 33.34375 C 48.726562 32.8125 49.539062 32.238281 50.285156 31.632812 C 50.957031 31.074219 51.574219 30.488281 52.132812 29.878906 C 52.671875 29.320312 53.136719 28.734375 53.523438 28.121094 L 55.585938 28.367188 C 54.671875 29.820312 53.1875 31.269531 51.140625 32.707031 C 49.839844 33.59375 48.832031 34.203125 48.113281 34.527344 Z M 17.8125 23.859375 L 5.402344 25.984375 L 36.105469 47.460938 L 36.105469 29.53125 L 20 24.535156 Z M 20.617188 28.828125 C 21.890625 28.671875 23.207031 28.917969 24.171875 29.492188 C 24.835938 29.886719 25.390625 30.355469 25.816406 30.875 L 23.902344 31.136719 C 23.699219 30.871094 23.433594 30.628906 23.113281 30.417969 C 22.605469 30.101562 22.054688 29.976562 21.460938 30.042969 L 21.390625 30.050781 C 21.035156 30.089844 20.742188 30.257812 20.636719 30.484375 C 20.511719 30.71875 20.601562 31.027344 20.898438 31.398438 C 21.296875 31.894531 21.824219 32.1875 22.480469 32.28125 C 22.898438 32.324219 23.324219 32.320312 23.734375 32.261719 L 24.007812 32.226562 L 24.859375 33.285156 C 24.234375 33.378906 23.832031 33.484375 23.652344 33.605469 C 23.339844 33.808594 23.359375 34.132812 23.714844 34.574219 C 23.917969 34.84375 24.226562 35.070312 24.605469 35.230469 C 24.925781 35.367188 25.3125 35.421875 25.6875 35.378906 L 25.75 35.371094 C 26.214844 35.308594 26.460938 35.152344 26.496094 34.90625 C 26.53125 34.65625 26.398438 34.34375 26.089844 33.976562 L 27.902344 33.730469 C 28.171875 34.078125 28.375 34.445312 28.507812 34.824219 C 28.582031 35.132812 28.550781 35.445312 28.410156 35.742188 C 28.300781 35.953125 28.097656 36.136719 27.832031 36.269531 C 27.480469 36.433594 27.078125 36.539062 26.65625 36.585938 L 26.480469 36.605469 C 25.605469 36.707031 24.707031 36.613281 23.917969 36.34375 C 23.027344 36.042969 22.304688 35.558594 21.847656 34.96875 C 21.496094 34.523438 21.367188 34.128906 21.46875 33.777344 C 21.503906 33.59375 21.636719 33.421875 21.835938 33.292969 L 21.828125 33.292969 C 21.648438 33.3125 21.304688 33.230469 20.796875 33.050781 C 19.980469 32.742188 19.320312 32.28125 18.902344 31.722656 C 18.390625 31.085938 18.230469 30.488281 18.421875 29.925781 C 18.613281 29.363281 19.28125 29.003906 20.425781 28.851562 Z M 3.984375 24.304688 L 19.917969 12.945312 C 19.988281 12.941406 20.058594 12.941406 20.125 12.945312 L 20.148438 12.945312 C 20.457031 12.96875 20.59375 13.089844 20.566406 13.308594 C 20.496094 13.589844 20.332031 13.863281 20.082031 14.097656 C 19.703125 14.492188 19.222656 14.835938 18.65625 15.113281 C 18.277344 15.304688 17.542969 15.613281 16.453125 16.042969 C 15.203125 16.53125 14.25 17.011719 13.589844 17.484375 C 12.960938 17.917969 12.394531 18.390625 11.902344 18.898438 L 16.722656 19.265625 L 17.921875 18 L 14.851562 17.769531 C 15.066406 17.632812 15.300781 17.507812 15.546875 17.394531 C 15.78125 17.289062 16.195312 17.125 16.785156 16.894531 L 17.726562 16.527344 C 18.390625 16.277344 19.023438 15.992188 19.617188 15.671875 C 20.332031 15.269531 20.953125 14.792969 21.449219 14.265625 C 22.117188 13.558594 22.433594 12.972656 22.398438 12.511719 C 22.371094 12.125 22.089844 11.882812 21.566406 11.777344 L 33.257812 3.460938 L 18.300781 20.996094 L 17.464844 21.980469 Z M 57.777344 17.273438 C 57.40625 16.917969 57.222656 16.640625 57.226562 16.441406 C 57.226562 16.246094 57.402344 16.128906 57.75 16.105469 L 57.832031 16.105469 C 58.195312 16.105469 58.550781 16.183594 58.84375 16.324219 C 59.296875 16.535156 59.6875 16.804688 59.992188 17.113281 C 60.355469 17.457031 60.535156 17.730469 60.535156 17.933594 C 60.535156 18.136719 60.363281 18.25 60.023438 18.28125 L 59.9375 18.28125 C 59.570312 18.277344 59.210938 18.195312 58.917969 18.046875 C 58.46875 17.839844 58.082031 17.578125 57.777344 17.277344 Z M 41.75 3.453125 L 54.046875 12.207031 L 53.875 12.207031 C 53.816406 12.207031 53.730469 12.207031 53.660156 12.21875 C 52.894531 12.277344 52.488281 12.5 52.441406 12.886719 C 52.390625 13.277344 52.636719 13.722656 53.175781 14.230469 C 53.453125 14.488281 53.769531 14.730469 54.109375 14.949219 C 54.546875 15.226562 55.050781 15.453125 55.597656 15.625 C 55.390625 15.8125 55.355469 16.070312 55.492188 16.402344 C 55.675781 16.792969 55.953125 17.160156 56.316406 17.488281 C 56.910156 18.0625 57.667969 18.550781 58.546875 18.933594 C 59.335938 19.277344 60.121094 19.4375 60.898438 19.414062 C 60.980469 19.414062 61.058594 19.410156 61.136719 19.402344 C 61.992188 19.339844 62.445312 19.082031 62.488281 18.632812 C 62.5 18.472656 62.480469 18.3125 62.421875 18.160156 L 71.015625 24.28125 L 57.605469 22.039062 L 56.710938 20.996094 Z M 56.136719 13.699219 L 56.496094 13.957031 C 56.5625 14.011719 56.628906 14.074219 56.695312 14.128906 C 56.960938 14.382812 57.09375 14.59375 57.09375 14.769531 C 57.09375 14.941406 56.945312 15.039062 56.636719 15.0625 L 56.5625 15.0625 C 56.242188 15.0625 55.929688 14.996094 55.671875 14.871094 C 55.3125 14.714844 55.007812 14.511719 54.765625 14.273438 C 54.476562 13.996094 54.335938 13.777344 54.34375 13.609375 C 54.351562 13.441406 54.507812 13.34375 54.808594 13.320312 L 54.886719 13.320312 C 55.203125 13.320312 55.507812 13.382812 55.765625 13.503906 C 55.898438 13.5625 56.023438 13.628906 56.136719 13.699219 Z M 37.496094 2.539062 L 20.132812 22.5625 L 37.496094 27.9375 L 54.871094 22.5625 Z M 37.324219 22.898438 C 35.613281 22.898438 34.410156 22.496094 33.722656 21.699219 C 33.035156 20.898438 32.691406 19.761719 32.691406 18.28125 C 32.691406 16.804688 33.035156 15.660156 33.722656 14.859375 C 34.410156 14.054688 35.613281 13.65625 37.324219 13.652344 C 39.035156 13.652344 40.234375 14.054688 40.925781 14.859375 C 41.613281 15.660156 41.957031 16.800781 41.957031 18.28125 C 41.957031 19.757812 41.613281 20.898438 40.925781 21.695312 C 40.234375 22.496094 39.035156 22.894531 37.324219 22.898438 Z M 38.867188 15.882812 C 39.109375 16.402344 39.234375 17.203125 39.234375 18.28125 C 39.234375 19.3125 39.109375 20.097656 38.867188 20.644531 C 38.625 21.191406 38.109375 21.460938 37.324219 21.457031 C 36.539062 21.457031 36.019531 21.1875 35.765625 20.644531 C 35.511719 20.101562 35.386719 19.316406 35.386719 18.28125 C 35.386719 17.203125 35.511719 16.402344 35.765625 15.882812 C 36.019531 15.367188 36.539062 15.105469 37.324219 15.105469 C 38.105469 15.105469 38.621094 15.363281 38.863281 15.882812 Z M 38.867188 15.882812 "/>
</g>
</svg>
