<?xml version="1.0" encoding="UTF-8"?>
<svg xmlns="http://www.w3.org/2000/svg" xmlns:xlink="http://www.w3.org/1999/xlink" width="75pt" height="50pt" viewBox="0 0 75 50" version="1.1">
<g id="surface1">
<rect x="0" y="0" width="75" height="50" style="fill:rgb(100%,100%,100%);fill-opacity:1;stroke:none;"/>
<path style=" stroke:none;fill-rule:nonzero;fill:rgb(0%,0%,0%);fill-opacity:1;" d="M 65.941406 17.710938 L 55.617188 8.230469 L 38.910156 4.621094 L 38.910156 13.667969 L 53.03125 20.507812 Z M 52.546875 14.933594 C 52.460938 15.167969 52.3125 15.386719 52.105469 15.582031 C 51.695312 15.960938 51.058594 16.207031 50.359375 16.25 C 49.621094 16.308594 48.855469 16.144531 48.054688 15.757812 C 47.257812 15.367188 46.785156 14.929688 46.648438 14.445312 C 46.5 13.984375 46.65625 13.507812 47.078125 13.132812 C 47.292969 12.945312 47.558594 12.78125 47.863281 12.660156 C 48.199219 12.515625 48.640625 12.464844 49.1875 12.503906 C 48.957031 12.1875 48.871094 11.835938 48.933594 11.488281 C 49.007812 11.140625 49.210938 10.8125 49.527344 10.53125 C 49.992188 10.089844 50.722656 9.808594 51.527344 9.75 C 52.371094 9.679688 53.238281 9.859375 54.132812 10.292969 C 55.023438 10.726562 55.527344 11.214844 55.644531 11.753906 C 55.765625 12.28125 55.566406 12.816406 55.082031 13.238281 C 54.777344 13.523438 54.367188 13.753906 53.890625 13.902344 C 53.425781 14.046875 52.902344 14.085938 52.398438 14.019531 C 52.597656 14.375 52.648438 14.679688 52.546875 14.933594 Z M 50.972656 14.125 C 51.015625 14.339844 50.925781 14.558594 50.722656 14.730469 C 50.40625 14.992188 49.894531 15.113281 49.402344 15.035156 C 48.914062 14.957031 48.53125 14.699219 48.425781 14.371094 C 48.390625 14.144531 48.492188 13.921875 48.707031 13.75 C 48.886719 13.566406 49.167969 13.441406 49.488281 13.398438 C 49.824219 13.367188 50.167969 13.429688 50.433594 13.578125 C 50.722656 13.699219 50.921875 13.902344 50.980469 14.128906 Z M 52.371094 12.976562 C 51.582031 13.027344 50.863281 12.675781 50.691406 12.160156 C 50.636719 11.921875 50.757812 11.664062 51.058594 11.390625 C 51.277344 11.15625 51.628906 10.988281 52.03125 10.925781 C 52.828125 10.871094 53.554688 11.226562 53.722656 11.75 C 53.753906 12.023438 53.625 12.296875 53.363281 12.507812 C 53.074219 12.78125 52.75 12.9375 52.386719 12.976562 Z M 36.117188 13.667969 L 36.117188 4.621094 L 19.40625 8.230469 L 9.082031 17.710938 L 21.996094 20.503906 Z M 19.613281 11.539062 L 25.164062 8.949219 C 25.542969 9.324219 25.796875 9.746094 25.90625 10.1875 C 26.054688 10.652344 25.917969 11.285156 25.496094 12.082031 C 25.230469 12.546875 25.015625 13.019531 24.859375 13.5 C 24.761719 13.851562 24.875 14.214844 25.175781 14.507812 C 25.382812 14.722656 25.695312 14.875 26.058594 14.945312 C 26.425781 15.003906 26.8125 14.949219 27.109375 14.792969 C 27.59375 14.566406 27.796875 14.292969 27.71875 13.96875 C 27.617188 13.699219 27.4375 13.445312 27.195312 13.222656 L 28.742188 12.5 C 29.199219 12.972656 29.464844 13.402344 29.539062 13.789062 C 29.679688 14.527344 29.207031 15.148438 28.121094 15.652344 C 27.261719 16.054688 26.410156 16.214844 25.574219 16.132812 C 24.734375 16.050781 24.039062 15.75 23.488281 15.230469 C 23.078125 14.847656 22.875 14.382812 22.910156 13.914062 C 22.96875 13.492188 23.125 13.078125 23.363281 12.683594 L 23.6875 12.085938 C 23.886719 11.710938 24.019531 11.445312 24.074219 11.292969 C 24.132812 11.140625 24.15625 10.984375 24.140625 10.828125 L 20.597656 12.480469 Z M 29.089844 32.578125 L 45.933594 32.578125 L 51.136719 21.894531 L 37.511719 15.296875 L 23.886719 21.894531 Z M 42.167969 23.292969 C 41.917969 23.101562 41.550781 23 41.171875 23.015625 C 40.578125 23.015625 40.175781 23.164062 39.964844 23.457031 C 39.8125 23.714844 39.738281 23.992188 39.746094 24.273438 L 37.863281 24.273438 C 37.894531 23.710938 38.046875 23.257812 38.320312 22.910156 C 38.839844 22.253906 39.761719 21.925781 41.085938 21.925781 C 42.136719 21.925781 42.96875 22.117188 43.585938 22.507812 C 44.207031 22.894531 44.507812 23.402344 44.5 24.035156 C 44.507812 24.503906 44.277344 24.960938 43.84375 25.335938 C 43.4375 25.660156 42.957031 25.941406 42.429688 26.175781 L 41.648438 26.542969 C 41.160156 26.777344 40.828125 26.945312 40.648438 27.042969 C 40.46875 27.148438 40.316406 27.269531 40.195312 27.40625 L 44.515625 27.40625 L 44.515625 28.546875 L 37.746094 28.546875 C 37.753906 28.097656 37.910156 27.652344 38.203125 27.25 C 38.480469 26.808594 39.136719 26.34375 40.167969 25.851562 C 40.785156 25.578125 41.371094 25.269531 41.914062 24.933594 C 42.296875 24.683594 42.511719 24.34375 42.523438 23.988281 C 42.535156 23.734375 42.40625 23.488281 42.167969 23.292969 Z M 30.503906 23.117188 C 30.9375 23.109375 31.367188 23.082031 31.789062 23.035156 C 32.15625 22.984375 32.488281 22.863281 32.746094 22.683594 C 32.925781 22.550781 33.054688 22.386719 33.125 22.210938 C 33.167969 22.125 33.191406 22.039062 33.199219 21.949219 L 34.824219 21.949219 L 34.824219 28.542969 L 32.832031 28.542969 L 32.832031 23.996094 L 30.503906 23.996094 L 30.503906 23.113281 Z M 28.78125 34.441406 L 20.804688 41.769531 L 37.511719 45.378906 L 54.222656 41.769531 L 46.246094 34.441406 Z M 40.097656 42.625 C 39.546875 43.09375 38.691406 43.328125 37.53125 43.328125 C 36.285156 43.328125 35.367188 42.980469 34.777344 42.285156 C 34.316406 41.742188 34.085938 41.042969 34.085938 40.1875 C 34.078125 39.777344 34.109375 39.367188 34.183594 38.960938 C 34.261719 38.46875 34.488281 37.996094 34.84375 37.5625 C 35.117188 37.253906 35.496094 36.988281 35.953125 36.796875 C 36.445312 36.59375 37.015625 36.492188 37.59375 36.503906 C 38.511719 36.503906 39.242188 36.660156 39.792969 36.96875 C 40.339844 37.289062 40.671875 37.738281 40.710938 38.222656 L 38.78125 38.222656 C 38.773438 38.097656 38.710938 37.976562 38.601562 37.875 C 38.386719 37.664062 38.027344 37.546875 37.652344 37.5625 C 37.019531 37.5625 36.570312 37.800781 36.300781 38.273438 C 36.125 38.648438 36.023438 39.035156 36 39.429688 C 36.226562 39.246094 36.511719 39.101562 36.839844 39.011719 C 37.964844 38.726562 39.234375 38.910156 40.089844 39.476562 C 40.660156 39.890625 40.964844 40.4375 40.929688 41 C 40.941406 41.585938 40.652344 42.160156 40.105469 42.621094 Z M 38.527344 40.21875 C 38.808594 40.425781 38.949219 40.71875 38.949219 41.105469 C 38.96875 41.40625 38.835938 41.703125 38.578125 41.949219 C 38.335938 42.164062 37.957031 42.285156 37.558594 42.273438 C 37.136719 42.28125 36.730469 42.15625 36.464844 41.9375 C 36.171875 41.691406 36.023438 41.382812 36.046875 41.070312 C 36.046875 40.628906 36.238281 40.3125 36.617188 40.113281 C 36.867188 39.984375 37.175781 39.914062 37.492188 39.914062 C 37.890625 39.910156 38.273438 40.019531 38.535156 40.21875 Z M 55.980469 29.261719 L 60.0625 30.078125 L 59.363281 31.65625 Z M 53.882812 22.277344 L 48.492188 33.339844 L 56.472656 40.664062 L 66.796875 31.1875 L 66.796875 19.484375 Z M 63.5625 30.769531 L 61.523438 30.359375 L 60.402344 32.863281 L 58.773438 32.539062 L 54.054688 29.070312 L 54.683594 27.671875 L 60.605469 28.851562 L 60.925781 28.136719 L 62.382812 28.425781 L 62.0625 29.140625 L 64.101562 29.546875 Z M 21.117188 22.277344 L 8.203125 19.480469 L 8.203125 31.195312 L 18.527344 40.667969 L 26.507812 33.34375 Z M 10.625 27.953125 L 17.132812 26.585938 L 16.4375 25.105469 L 17.699219 24.839844 C 17.835938 25.113281 18.003906 25.378906 18.203125 25.632812 C 18.378906 25.851562 18.652344 26.027344 18.980469 26.136719 C 19.230469 26.210938 19.5 26.246094 19.773438 26.238281 C 19.90625 26.238281 20.042969 26.226562 20.171875 26.207031 L 20.660156 27.238281 L 11.230469 29.21875 Z M 13.332031 33.675781 L 12.734375 32.40625 L 19.242188 31.039062 L 18.542969 29.5625 L 19.804688 29.296875 C 19.941406 29.570312 20.109375 29.835938 20.308594 30.089844 C 20.484375 30.304688 20.757812 30.480469 21.089844 30.589844 C 21.335938 30.667969 21.609375 30.703125 21.878906 30.691406 C 22.015625 30.691406 22.148438 30.683594 22.28125 30.660156 L 22.769531 31.691406 Z M 13.332031 33.675781 "/>
</g>
</svg>
