<?xml version="1.0" encoding="UTF-8"?>
<svg xmlns="http://www.w3.org/2000/svg" xmlns:xlink="http://www.w3.org/1999/xlink" width="50pt" height="35pt" viewBox="0 0 75 50" version="1.1">
<g id="surface1">
<rect x="0" y="0" width="75" height="50" style="fill:rgb(100%,100%,100%);fill-opacity:1;stroke:none;"/>
<path style=" stroke:none;fill-rule:nonzero;fill:rgb(0%,0%,0%);fill-opacity:1;" d="M 36.328125 1.980469 L 10.59375 12.949219 L 36.328125 12.578125 Z M 38.671875 1.980469 L 38.671875 12.578125 L 64.410156 12.949219 Z M 46.199219 7.734375 C 47.09375 8.078125 47.402344 8.4375 48.414062 8.144531 C 49.980469 8.222656 51.679688 8.710938 52.457031 9.679688 C 53.144531 10.117188 52.675781 10.910156 51.695312 10.910156 C 50.273438 10.917969 48.808594 10.3125 49.554688 10.097656 C 50.242188 9.902344 51.710938 10.183594 51.019531 9.558594 C 50.492188 9.121094 49.410156 8.800781 48.632812 8.984375 C 48.398438 9.648438 47.257812 9.375 46.875 8.914062 C 46.539062 8.351562 45.542969 8.117188 44.679688 8.144531 C 43.785156 8.410156 44.914062 9.003906 45.453125 9.109375 C 46.613281 9.328125 45.484375 9.84375 44.855469 9.609375 C 44.238281 9.375 42.65625 8.671875 42.875 7.824219 C 43.726562 7.101562 45.191406 7.371094 46.199219 7.734375 Z M 30.308594 7.394531 C 31.113281 7.441406 32.109375 7.6875 31.800781 8.359375 C 31.171875 9.042969 30.367188 9.640625 29.148438 9.804688 C 28.199219 10.136719 26.96875 10.234375 25.984375 9.988281 C 25.445312 9.765625 24.007812 9.082031 23.804688 9.65625 C 23.496094 11.105469 23.90625 10.9375 22.175781 11.398438 L 22.175781 9.011719 C 23.628906 8.632812 25.269531 8.574219 26.617188 9.140625 C 27.789062 9.550781 29.457031 9.289062 30.160156 8.582031 C 30.367188 7.949219 28.972656 8.132812 28.375 8.25 C 27.976562 7.449219 29.53125 7.519531 30.308594 7.394531 Z M 35.433594 14.148438 L 8.113281 14.550781 L 18.546875 33.386719 Z M 39.566406 14.148438 L 56.453125 33.386719 L 66.886719 14.550781 Z M 37.5 14.882812 L 20.347656 34.433594 L 54.652344 34.433594 Z M 57.027344 16.945312 C 59.0625 17.753906 60.175781 19.503906 60.261719 21.140625 C 60.074219 22.472656 60.160156 23.074219 58.039062 23.230469 C 55.914062 23.390625 54.535156 21.359375 53.6875 20.046875 C 53.1875 19.082031 52.835938 17.703125 53.9375 16.992188 C 54.828125 16.523438 56.132812 16.589844 57.027344 16.945312 Z M 24.257812 18.515625 C 24.566406 18.90625 24.183594 19.628906 23.554688 19.699219 C 22.835938 19.765625 23 18.789062 22.175781 18.566406 C 21.167969 18.339844 20.183594 19.113281 19.980469 19.699219 C 21.503906 19.308594 22.953125 20.390625 22.953125 21.359375 C 22.894531 22.5 21.796875 23.78125 20.070312 24.101562 L 19.246094 24.101562 C 17.386719 24.035156 16.566406 22.558594 17.167969 21.503906 C 17.8125 19.960938 18.75 18.191406 21.152344 17.539062 C 22.398438 17.160156 23.933594 17.851562 24.257812 18.515625 Z M 55.589844 17.695312 C 54.550781 17.6875 54.945312 18.671875 55.109375 19.113281 C 55.621094 20.234375 56.175781 21.707031 57.875 22.042969 C 58.871094 21.921875 58.519531 20.789062 58.417969 20.429688 C 57.730469 19.363281 57.378906 18.152344 55.589844 17.695312 Z M 7.617188 18.164062 L 7.617188 35.078125 L 16.683594 34.523438 Z M 67.382812 18.164062 L 58.316406 34.523438 L 67.382812 35.078125 Z M 50.113281 18.234375 L 54.289062 24.433594 L 52.824219 24.863281 L 49.894531 20.632812 C 49 20.925781 47.988281 21.503906 47.753906 20.496094 C 47.5625 20.117188 49 20 48.941406 19.335938 C 48.894531 18.664062 49.261719 18.144531 50.113281 18.234375 Z M 19.058594 20.910156 C 18.707031 21.40625 18.457031 21.914062 18.660156 22.460938 C 18.910156 23.320312 20.640625 23.085938 20.945312 22.382812 C 21.34375 21.894531 21.519531 21.242188 20.875 20.851562 C 20.273438 20.519531 19.570312 20.578125 19.058594 20.910156 Z M 67.164062 24.972656 C 67.148438 26.785156 67.324219 28.796875 65.742188 30.371094 C 65.609375 30.488281 65.421875 30.554688 65.199219 30.617188 C 64.351562 30.214844 64.761719 29.511719 65.375 29.101562 C 65.523438 29.8125 66.179688 28.820312 66.34375 28.554688 C 66.535156 28.242188 66.871094 26.828125 66.195312 27.558594 C 66.300781 27.949219 65.199219 28.835938 64.835938 28.347656 C 64.101562 26.941406 64.835938 25.371094 65.859375 24.101562 C 66.695312 23.496094 67.308594 24.53125 67.164062 24.972656 Z M 8.777344 23.976562 C 8.867188 23.984375 8.976562 24.070312 9.140625 24.328125 L 9.140625 30.292969 C 8.074219 29.609375 8.488281 28.535156 8.492188 27.714844 C 8.492188 26.894531 8.730469 26.125 8.300781 25.449219 C 7.625 25.28125 7.453125 23.789062 7.839844 24.207031 C 8.484375 24.679688 8.519531 23.945312 8.777344 23.976562 Z M 34.964844 24.71875 C 36.152344 25.15625 36.988281 26.125 36.546875 27.023438 C 36.238281 28.503906 32.59375 29.082031 32.09375 29.921875 C 31.917969 30.214844 35.816406 30.078125 36.519531 30.078125 C 36.589844 30.46875 36.738281 31.125 35.960938 31.222656 C 33.835938 31.101562 31.582031 31.164062 29.355469 31.164062 C 29.414062 30.066406 30.4375 29.082031 31.84375 28.542969 C 32.855469 28.066406 34.101562 27.636719 34.496094 26.796875 C 34.761719 26.355469 34.410156 25.890625 33.824219 25.671875 C 33.207031 25.390625 32.210938 25.449219 31.890625 25.9375 C 31.597656 26.308594 31.246094 26.828125 30.617188 26.875 C 30.191406 26.914062 29.296875 26.925781 29.558594 26.394531 C 29.765625 25.851562 30.058594 25.273438 30.761719 24.914062 C 32.050781 24.296875 33.675781 24.257812 34.964844 24.71875 Z M 42.773438 24.582031 C 43.769531 24.792969 44.53125 25.351562 44.867188 26.003906 C 45.761719 27.441406 45.671875 29.238281 44.222656 30.488281 C 43.5625 30.957031 42.730469 31.375 41.734375 31.375 C 39.902344 31.367188 38.453125 30.292969 38.101562 29.148438 C 37.648438 27.84375 37.835938 26.347656 39.109375 25.265625 C 40.105469 24.523438 41.453125 24.257812 42.773438 24.582031 Z M 65.640625 25.371094 C 65.40625 25.949219 65.15625 26.679688 65.535156 27.257812 C 66.285156 27.0625 66.328125 26.320312 66.503906 25.839844 C 66.636719 25.242188 65.992188 24.609375 65.640625 25.371094 Z M 39.828125 27.429688 C 39.917969 28.457031 40.078125 29.660156 41.25 30.1875 C 41.96875 30.359375 42.671875 29.96875 42.875 29.53125 C 43.15625 28.917969 43.210938 28.273438 43.226562 27.636719 C 43.199219 26.941406 43.007812 26.171875 42.246094 25.671875 C 40.460938 25.242188 40.003906 26.738281 39.828125 27.429688 Z M 63.574219 26.054688 L 63.574219 32.03125 L 62.929688 32.6875 L 62.929688 28.554688 C 62.257812 29.285156 61.597656 29.445312 62.035156 28.46875 C 62.929688 27.773438 62.738281 26.769531 63.574219 26.054688 Z M 12.28125 27.246094 C 12.398438 27.597656 13.03125 28.984375 12.582031 28.691406 C 12.292969 28.5625 12.050781 28.210938 12.082031 28.097656 C 11.855469 27.804688 11.648438 27.5 11.464844 27.195312 C 11.035156 27.585938 10.886719 28.007812 11.003906 28.503906 C 11.035156 28.347656 11.179688 28.28125 11.503906 28.4375 C 12.648438 29.667969 13.285156 31.277344 12.570312 32.6875 L 12.246094 32.792969 C 10.726562 32.226562 10.574219 30.898438 10.277344 29.863281 C 10.050781 28.664062 10.160156 27.453125 10.613281 26.28125 C 11.375 25.90625 11.957031 26.804688 12.28125 27.246094 Z M 11.25 29.21875 C 10.65625 29.675781 10.917969 30.46875 11.195312 31.015625 C 11.355469 31.554688 12.207031 32.011719 12.082031 31.171875 C 12.183594 30.089844 11.742188 29.929688 11.25 29.21875 Z M 20.976562 35.996094 L 37.5 48.019531 L 54.023438 35.996094 Z M 17.839844 36.023438 L 9.957031 36.503906 L 19.367188 40.515625 C 18.984375 40.253906 18.648438 39.960938 18.324219 39.660156 C 17.5625 38.984375 16.789062 38.328125 15.558594 38.039062 C 14.273438 37.402344 14.941406 37.519531 15.980469 37.78125 C 15.835938 37.609375 15.878906 37.527344 15.996094 37.527344 C 16.316406 37.511719 17.226562 37.9375 17.429688 38.144531 L 21.050781 41.230469 L 30.585938 45.300781 Z M 57.160156 36.023438 L 50.945312 40.546875 C 51.886719 40.246094 52.601562 39.71875 53.4375 39.335938 C 53.789062 39.199219 53.980469 39.148438 54.066406 39.148438 C 54.375 39.148438 53.277344 39.84375 52.9375 40.15625 C 51.5625 41.113281 50.59375 42.402344 48.75 42.996094 L 51.519531 40.605469 C 51.179688 40.734375 50.640625 40.917969 50.316406 41.003906 L 44.414062 45.300781 L 55.328125 40.652344 C 56.117188 40 55.605469 40.109375 54.492188 40.566406 L 52.824219 41.152344 C 54.492188 39.816406 57.332031 38.390625 58.683594 37.675781 C 60.027344 36.960938 61.011719 36.71875 59.882812 37.527344 L 58.039062 39.089844 C 59.503906 38.351562 58.167969 39.472656 57.378906 39.628906 C 57.273438 39.726562 57.171875 39.824219 57.054688 39.914062 L 65.039062 36.503906 Z M 34.570312 37.675781 L 34.570312 41.914062 L 32.609375 41.914062 L 32.609375 38.984375 C 31.875 38.847656 31.085938 39.148438 30.367188 38.953125 C 29.808594 38.671875 30.511719 38.292969 31.023438 38.378906 C 31.507812 38.367188 32.136719 38.398438 32.386719 38.066406 C 33.03125 37.625 33.792969 37.636719 34.570312 37.675781 Z M 38.820312 37.722656 C 40.589844 37.84375 42.363281 37.78125 44.179688 37.78125 C 44.398438 38.074219 44.296875 38.546875 43.695312 38.554688 C 42.570312 38.585938 40.621094 38.398438 39.902344 38.613281 C 38.703125 39.636719 40.738281 38.984375 41.570312 39.121094 C 42.597656 39.230469 43.769531 39.40625 44.371094 40.019531 C 44.679688 40.320312 44.765625 40.734375 44.472656 41.0625 C 43.621094 41.726562 41.984375 42.1875 40.765625 42.128906 C 39.695312 42.070312 38.480469 42.019531 37.75 41.433594 C 36.8125 40.402344 39.289062 40.78125 39.535156 41.125 C 40.414062 41.640625 42.511719 41.308594 42.570312 40.664062 C 42.65625 40.253906 42.261719 40.050781 41.558594 39.902344 C 40.855469 39.757812 39.710938 40 39.023438 40.078125 C 38.335938 40.15625 37.617188 40.125 37.703125 39.648438 C 37.824219 39.238281 38.101562 38.855469 38.101562 38.429688 C 38.117188 38.132812 38.347656 37.742188 38.820312 37.722656 Z M 58.375 38.210938 C 58.34375 38.195312 57.347656 38.78125 56.925781 39.003906 L 54.609375 40.28125 C 56.160156 39.648438 57.4375 39.109375 58.375 38.210938 Z M 22.191406 39.601562 C 22.542969 39.601562 23.289062 40.050781 23.570312 40.28125 L 27.390625 43.320312 C 26.265625 43.117188 25.445312 42.625 24.8125 41.980469 C 23.863281 41.269531 23.160156 40.359375 21.710938 40.066406 C 20.390625 39.578125 20.945312 39.441406 22.015625 39.855469 C 21.972656 39.667969 22.046875 39.601562 22.191406 39.601562 Z M 22.191406 39.601562 "/>
</g>
</svg>
