<?xml version="1.0" encoding="UTF-8"?>
<svg xmlns="http://www.w3.org/2000/svg" xmlns:xlink="http://www.w3.org/1999/xlink" width="50pt" height="35pt" viewBox="0 0 75 50" version="1.1">
<g id="surface1">
<rect x="0" y="0" width="75" height="50" style="fill:rgb(100%,100%,100%);fill-opacity:1;stroke:none;"/>
<path style=" stroke:none;fill-rule:nonzero;fill:rgb(0%,0%,0%);fill-opacity:1;" d="M 34.441406 19.164062 L 36.941406 16.285156 L 36.941406 19.164062 Z M 71.332031 44.53125 L 3.667969 44.53125 L 37.5 5.46875 Z M 18.796875 39.175781 L 24.832031 36.9375 L 23.851562 35.757812 L 15.105469 39.007812 L 15.90625 39.964844 C 16.03125 39.925781 16.160156 39.898438 16.292969 39.878906 C 16.5625 39.835938 16.839844 39.832031 17.109375 39.871094 C 17.472656 39.9375 17.796875 40.074219 18.039062 40.265625 C 18.3125 40.488281 18.558594 40.730469 18.78125 40.980469 L 19.953125 40.546875 Z M 40 19.164062 L 38.867188 19.164062 L 38.867188 14.992188 L 36.65625 14.992188 L 32.972656 19.046875 L 32.972656 20.191406 L 36.9375 20.191406 L 36.9375 21.628906 L 38.867188 21.628906 L 38.867188 20.191406 L 40 20.191406 Z M 59.28125 39.910156 C 59.949219 39.132812 59.976562 38.425781 59.371094 37.789062 C 59.050781 37.453125 58.53125 37.136719 57.808594 36.835938 L 56.859375 37.945312 C 57.226562 38.082031 57.550781 38.261719 57.8125 38.480469 C 58.097656 38.753906 58.085938 39.0625 57.789062 39.410156 C 57.621094 39.636719 57.300781 39.800781 56.921875 39.855469 C 56.542969 39.894531 56.15625 39.84375 55.828125 39.707031 C 55.363281 39.523438 55.027344 39.226562 54.886719 38.875 C 54.71875 38.390625 54.605469 37.894531 54.550781 37.394531 C 54.421875 36.542969 54.136719 35.925781 53.699219 35.539062 C 53.3125 35.167969 52.808594 34.851562 52.21875 34.621094 L 48.808594 38.597656 L 50.316406 39.171875 L 52.488281 36.640625 C 52.605469 36.777344 52.6875 36.929688 52.734375 37.085938 C 52.777344 37.246094 52.832031 37.523438 52.890625 37.925781 L 52.984375 38.566406 C 53.023438 38.996094 53.15625 39.417969 53.378906 39.820312 C 53.652344 40.261719 54.140625 40.625 54.765625 40.859375 C 55.605469 41.179688 56.433594 41.253906 57.257812 41.085938 C 58.078125 40.917969 58.75 40.527344 59.277344 39.914062 Z M 59.28125 39.910156 "/>
</g>
</svg>
