<?xml version="1.0" encoding="UTF-8"?>
<svg xmlns="http://www.w3.org/2000/svg" xmlns:xlink="http://www.w3.org/1999/xlink" width="50pt" height="35pt" viewBox="0 0 75 50" version="1.1">
<g id="surface1">
<rect x="0" y="0" width="75" height="50" style="fill:rgb(100%,100%,100%);fill-opacity:1;stroke:none;"/>
<path style=" stroke:none;fill-rule:nonzero;fill:rgb(0%,0%,0%);fill-opacity:1;" d="M 37.464844 4.371094 C 36.558594 4.371094 35.65625 4.507812 34.953125 4.777344 L 12.578125 13.40625 C 11.175781 13.945312 11.175781 14.800781 12.578125 15.34375 L 34.953125 23.972656 C 36.355469 24.511719 38.574219 24.511719 39.976562 23.972656 L 62.351562 15.34375 C 63.753906 14.800781 63.753906 13.945312 62.351562 13.40625 L 39.976562 4.777344 C 39.273438 4.507812 38.371094 4.371094 37.464844 4.371094 Z M 37.738281 5.585938 C 38.90625 5.605469 40.015625 5.796875 40.839844 6.125 C 42.640625 6.851562 42.625 8.011719 40.8125 8.730469 C 38.996094 9.449219 36.054688 9.457031 34.222656 8.742188 C 32.859375 8.203125 32.472656 7.386719 33.25 6.6875 C 34.027344 5.988281 35.808594 5.550781 37.738281 5.585938 Z M 46.296875 9.023438 C 48.175781 9.035156 49.859375 9.488281 50.566406 10.179688 C 51.273438 10.867188 50.867188 11.65625 49.539062 12.183594 C 47.710938 12.90625 44.746094 12.90625 42.917969 12.183594 C 41.089844 11.460938 41.089844 10.289062 42.917969 9.566406 C 43.8125 9.210938 45.03125 9.015625 46.296875 9.023438 Z M 20.28125 12.4375 C 21.449219 12.460938 22.558594 12.652344 23.386719 12.980469 C 25.214844 13.703125 25.214844 14.875 23.386719 15.597656 C 21.558594 16.320312 18.59375 16.320312 16.765625 15.597656 C 15.398438 15.058594 15.011719 14.242188 15.792969 13.542969 C 16.570312 12.84375 18.351562 12.40625 20.28125 12.4375 Z M 55.128906 12.464844 C 56.300781 12.484375 57.40625 12.679688 58.234375 13.003906 C 60.046875 13.730469 60.042969 14.898438 58.21875 15.617188 C 56.398438 16.339844 53.445312 16.339844 51.613281 15.625 C 50.25 15.082031 49.863281 14.265625 50.640625 13.566406 C 51.417969 12.871094 53.203125 12.429688 55.128906 12.464844 Z M 28.90625 15.902344 C 30.785156 15.914062 32.464844 16.367188 33.171875 17.058594 C 33.878906 17.746094 33.476562 18.539062 32.144531 19.0625 C 30.964844 19.539062 29.234375 19.726562 27.609375 19.554688 C 25.980469 19.386719 24.710938 18.882812 24.28125 18.238281 C 23.847656 17.597656 24.324219 16.910156 25.527344 16.445312 C 26.421875 16.089844 27.640625 15.894531 28.90625 15.902344 Z M 11.085938 16.976562 C 10.242188 16.960938 9.667969 17.398438 9.667969 18.175781 L 9.667969 33.574219 C 9.667969 34.65625 10.777344 35.933594 12.179688 36.476562 L 33.703125 44.761719 C 35.105469 45.300781 36.214844 44.875 36.214844 43.796875 L 36.214844 28.394531 C 36.214844 27.316406 35.105469 26.035156 33.703125 25.496094 L 12.179688 17.210938 C 11.785156 17.058594 11.414062 16.980469 11.085938 16.976562 Z M 63.933594 16.976562 C 63.601562 16.980469 63.230469 17.058594 62.835938 17.210938 L 41.3125 25.496094 C 39.910156 26.035156 38.800781 27.316406 38.800781 28.394531 L 38.800781 43.796875 C 38.800781 44.875 39.910156 45.300781 41.3125 44.761719 L 62.835938 36.476562 C 64.238281 35.9375 65.347656 34.65625 65.347656 33.578125 L 65.347656 18.175781 C 65.347656 17.398438 64.773438 16.960938 63.933594 16.976562 Z M 13.082031 19.117188 C 14.101562 19.070312 15.363281 19.554688 16.382812 20.386719 C 17.40625 21.214844 18.035156 22.265625 18.035156 23.140625 C 18.035156 24.011719 17.40625 24.578125 16.386719 24.625 C 15.367188 24.667969 14.109375 24.183594 13.089844 23.355469 C 12.070312 22.523438 11.441406 21.476562 11.441406 20.601562 C 11.441406 19.730469 12.0625 19.164062 13.082031 19.117188 Z M 61.9375 19.117188 C 62.953125 19.164062 63.578125 19.730469 63.574219 20.601562 C 63.570312 21.949219 62.097656 23.609375 60.277344 24.308594 C 58.460938 25.011719 56.984375 24.488281 56.984375 23.140625 C 56.980469 22.265625 57.609375 21.214844 58.632812 20.386719 C 59.65625 19.554688 60.914062 19.070312 61.9375 19.117188 Z M 37.738281 19.34375 C 38.90625 19.363281 40.015625 19.558594 40.839844 19.882812 C 42.640625 20.609375 42.625 21.773438 40.8125 22.492188 C 38.996094 23.210938 36.054688 23.214844 34.222656 22.503906 C 32.855469 21.960938 32.46875 21.148438 33.25 20.449219 C 34.027344 19.75 35.808594 19.3125 37.738281 19.34375 Z M 29.488281 25.433594 C 30.507812 25.386719 31.769531 25.867188 32.789062 26.699219 C 33.8125 27.53125 34.441406 28.582031 34.441406 29.453125 C 34.441406 30.328125 33.8125 30.894531 32.792969 30.9375 C 31.773438 30.980469 30.515625 30.496094 29.496094 29.667969 C 28.476562 28.839844 27.847656 27.789062 27.847656 26.917969 C 27.847656 26.046875 28.46875 25.480469 29.488281 25.433594 Z M 45.527344 25.433594 C 46.546875 25.480469 47.171875 26.046875 47.167969 26.917969 C 47.164062 28.265625 45.691406 29.925781 43.871094 30.625 C 42.054688 31.324219 40.578125 30.800781 40.578125 29.453125 C 40.574219 28.582031 41.203125 27.53125 42.226562 26.699219 C 43.25 25.867188 44.507812 25.386719 45.53125 25.433594 Z M 21.285156 28.234375 C 22.304688 28.183594 23.566406 28.667969 24.585938 29.5 C 25.609375 30.328125 26.238281 31.378906 26.238281 32.253906 C 26.234375 33.601562 24.761719 34.125 22.941406 33.425781 C 21.121094 32.722656 19.648438 31.066406 19.644531 29.71875 C 19.644531 28.84375 20.265625 28.277344 21.285156 28.234375 Z M 13.082031 31.101562 C 14.101562 31.054688 15.363281 31.539062 16.382812 32.367188 C 17.40625 33.199219 18.035156 34.25 18.035156 35.125 C 18.035156 35.996094 17.40625 36.5625 16.386719 36.605469 C 15.367188 36.648438 14.109375 36.167969 13.089844 35.335938 C 12.070312 34.507812 11.441406 33.457031 11.441406 32.585938 C 11.441406 31.714844 12.0625 31.148438 13.082031 31.101562 Z M 61.9375 31.101562 C 62.953125 31.148438 63.578125 31.714844 63.574219 32.585938 C 63.570312 33.933594 62.097656 35.59375 60.277344 36.292969 C 58.460938 36.992188 56.984375 36.46875 56.984375 35.125 C 56.980469 34.25 57.609375 33.199219 58.632812 32.367188 C 59.65625 31.539062 60.914062 31.054688 61.9375 31.101562 Z M 29.488281 37.417969 C 30.507812 37.367188 31.769531 37.851562 32.789062 38.683594 C 33.8125 39.511719 34.441406 40.566406 34.441406 41.4375 C 34.441406 42.3125 33.8125 42.878906 32.792969 42.921875 C 31.773438 42.964844 30.515625 42.480469 29.496094 41.652344 C 28.476562 40.820312 27.847656 39.773438 27.847656 38.902344 C 27.847656 38.027344 28.46875 37.464844 29.488281 37.417969 Z M 45.53125 37.417969 C 46.546875 37.464844 47.171875 38.027344 47.167969 38.902344 C 47.164062 40.25 45.691406 41.910156 43.871094 42.609375 C 42.054688 43.308594 40.578125 42.785156 40.578125 41.4375 C 40.574219 40.566406 41.203125 39.511719 42.226562 38.683594 C 43.25 37.851562 44.507812 37.367188 45.53125 37.417969 Z M 45.53125 37.417969 "/>
</g>
</svg>
