<?xml version="1.0" encoding="UTF-8"?>
<svg xmlns="http://www.w3.org/2000/svg" xmlns:xlink="http://www.w3.org/1999/xlink" width="50pt" height="35pt" viewBox="0 0 75 50" version="1.1">
<g id="surface1">
<rect x="0" y="0" width="75" height="50" style="fill:rgb(100%,100%,100%);fill-opacity:1;stroke:none;"/>
<path style=" stroke:none;fill-rule:nonzero;fill:rgb(0%,0%,0%);fill-opacity:1;" d="M 37.5 3.628906 L 11.410156 33.578125 L 63.589844 33.578125 Z M 33.714844 4.863281 L 10.546875 16.039062 L 10.546875 31.460938 Z M 41.285156 4.863281 L 64.453125 31.460938 L 64.453125 16.039062 Z M 21.875 13.652344 L 21.875 15.78125 L 20.632812 16.726562 L 20.632812 15.070312 C 20.226562 15.386719 19.796875 15.695312 19.402344 16.015625 C 19.921875 16.042969 19.765625 16.546875 19.726562 16.773438 C 19.472656 17.703125 18.53125 18.488281 17.761719 19.191406 C 17.480469 19.441406 17.1875 19.6875 16.882812 19.925781 C 16.203125 20.257812 15.640625 20.355469 15.304688 19.785156 C 15.347656 19.023438 15.867188 18.296875 16.484375 17.734375 L 17.257812 16.960938 C 17.25 17.203125 17.273438 17.449219 17.246094 17.6875 C 16.902344 18.109375 16.257812 18.609375 16.402344 19.113281 C 17.539062 19.199219 18.195312 18.050781 18.53125 17.492188 C 18.652344 17.222656 18.839844 16.960938 18.324219 16.960938 L 18.324219 16.253906 Z M 52.949219 13.773438 L 59.519531 19.089844 L 59.519531 19.800781 L 55.078125 16.253906 L 55.078125 17.082031 L 54.191406 16.371094 C 54.167969 15.964844 53.984375 15.554688 53.835938 15.191406 C 53.5625 14.902344 53.257812 14.632812 52.949219 14.363281 Z M 37.511719 19.90625 C 38.734375 19.90625 39.667969 20.058594 40.304688 20.355469 C 40.945312 20.652344 41.261719 21.085938 41.261719 21.660156 C 41.261719 22.042969 41.105469 22.363281 40.789062 22.617188 C 40.476562 22.875 40.011719 23.066406 39.398438 23.1875 C 40.085938 23.316406 40.601562 23.523438 40.953125 23.808594 C 41.304688 24.09375 41.480469 24.449219 41.480469 24.886719 C 41.480469 25.554688 41.144531 26.0625 40.476562 26.40625 C 39.8125 26.746094 38.824219 26.917969 37.511719 26.917969 C 36.191406 26.917969 35.199219 26.746094 34.523438 26.40625 C 33.855469 26.0625 33.519531 25.554688 33.519531 24.886719 C 33.519531 24.449219 33.695312 24.09375 34.042969 23.808594 C 34.394531 23.523438 34.914062 23.316406 35.605469 23.1875 C 34.988281 23.066406 34.523438 22.875 34.210938 22.617188 C 33.898438 22.363281 33.742188 22.042969 33.742188 21.660156 C 33.742188 21.089844 34.0625 20.65625 34.699219 20.355469 C 35.339844 20.058594 36.277344 19.90625 37.511719 19.90625 Z M 37.511719 21.003906 C 37.09375 21.003906 36.773438 21.074219 36.546875 21.21875 C 36.324219 21.367188 36.214844 21.570312 36.214844 21.835938 C 36.214844 22.105469 36.324219 22.3125 36.546875 22.457031 C 36.773438 22.601562 37.09375 22.671875 37.511719 22.671875 C 37.917969 22.671875 38.230469 22.601562 38.453125 22.457031 C 38.675781 22.3125 38.785156 22.105469 38.785156 21.835938 C 38.785156 21.566406 38.675781 21.363281 38.453125 21.21875 C 38.230469 21.074219 37.917969 21.003906 37.511719 21.003906 Z M 37.511719 23.761719 C 37.023438 23.761719 36.644531 23.851562 36.382812 24.03125 C 36.121094 24.207031 35.988281 24.460938 35.988281 24.792969 C 35.988281 25.125 36.121094 25.382812 36.382812 25.558594 C 36.644531 25.734375 37.023438 25.820312 37.511719 25.820312 C 37.996094 25.820312 38.363281 25.734375 38.625 25.558594 C 38.882812 25.382812 39.007812 25.125 39.007812 24.792969 C 39.007812 24.460938 38.882812 24.203125 38.625 24.03125 C 38.363281 23.851562 37.996094 23.761719 37.511719 23.761719 Z M 12.992188 35.140625 L 37.5 46.964844 L 62.007812 35.140625 Z M 33.414062 37.410156 L 41.40625 37.410156 L 41.40625 37.882812 C 39.296875 38.464844 38.246094 39.144531 37.324219 40.367188 L 35.015625 40.367188 C 36.054688 39.015625 37.144531 38.636719 38.921875 37.882812 L 33.414062 37.882812 Z M 33.414062 37.410156 "/>
</g>
</svg>
